<?xml version="1.0" encoding="UTF-8" standalone="no"?>
<!DOCTYPE svg PUBLIC "-//W3C//DTD SVG 1.1//EN" "http://www.w3.org/Graphics/SVG/1.1/DTD/svg11.dtd">
<svg xmlns:xlink="http://www.w3.org/1999/xlink" version="1.1" class="highcharts-root" style="font-family: Roboto; font-size: 12px;" xmlns="http://www.w3.org/2000/svg" width="110" height="150" viewBox="0 0 110 150" aria-label="Interactive chart" aria-hidden="false"><desc aria-hidden="true">Created with Highcharts 10.3.1</desc><defs aria-hidden="true"><clipPath id="highcharts-yxnagcq-115-"><rect x="0" y="0" width="90" height="88" fill="none"/></clipPath><clipPath id="highcharts-yxnagcq-116-"><rect x="0" y="0" width="90" height="234.99113048851652" fill="none"/></clipPath></defs><rect fill="#ffffff" class="highcharts-background" x="0" y="0" width="110" height="150" rx="0" ry="0" aria-hidden="true"/><rect fill="none" class="highcharts-plot-background" x="10" y="47" width="90" height="88" aria-hidden="true"/><g class="highcharts-pane-group" data-z-index="0" aria-hidden="true"><path fill="rgb(237, 238, 240)" d="M 55 49.111999999999995 A 41.888000000000005 41.888000000000005 0 1 1 54.95811200698131 49.112020943998246 M 54.967088005485316 58.08801645599863 A 32.912 32.912 0 1 0 55 58.088" class="highcharts-pane "/></g><g class="highcharts-grid highcharts-yaxis-grid highcharts-radial-axis-grid" data-z-index="1" aria-hidden="true"/><rect fill="none" class="highcharts-plot-border" data-z-index="1" x="10" y="47" width="90" height="88" aria-hidden="true"/><g class="highcharts-axis highcharts-yaxis highcharts-radial-axis" data-z-index="2" aria-hidden="true"><path fill="none" class="highcharts-axis-line" data-z-index="7" d="M 55 53.6 A 37.4 37.4 0 1 1 54.962600006233316 53.600018699998444 M 55 91 A 0 0 0 1 0 55 91"/></g><g class="highcharts-data-labels highcharts-series-0 highcharts-solidgauge-series" data-z-index="2" opacity="1" transform="translate(10,47) scale(1 1)" aria-hidden="true"><g class="highcharts-label highcharts-data-label highcharts-data-label-color-0" data-z-index="1" style="cursor: pointer;" transform="translate(32,33)"><text x="5" data-z-index="1" y="16" style="color: rgb(0, 0, 0); font-size: 11px; font-weight: bold; fill: rgb(0, 0, 0);"><tspan class="highcharts-text-outline" fill="#FFFFFF" stroke="#FFFFFF" stroke-width="2px" stroke-linejoin="round" style="">0.3<tspan x="5" dy="0">​</tspan></tspan>30%</text></g></g><g class="highcharts-series-group" data-z-index="3" aria-hidden="false"><g class="highcharts-series highcharts-series-0 highcharts-solidgauge-series" data-z-index="0.1" opacity="1" transform="translate(10,47) scale(1 1)" clip-path="url(#highcharts-yxnagcq-115-)" aria-hidden="false"><path fill="#e46a15" d="M 45 2.1119999999999948 A 41.888000000000005 41.888000000000005 0 0 1 84.85077953734842 56.90425953961148 A 4.488000000000003 4.488000000000003 0 1 1 76.31132677934517 54.13906106683759 A 32.912 32.912 0 0 0 45 11.088000000000001 A 4.488000000000003 4.488000000000003 0 1 1 45 2.1119999999999948" sweep-flag="0" stroke-linecap="round" stroke-linejoin="round" class="highcharts-point highcharts-color-0" tabindex="-1" style="outline: none;" role="img" aria-label="0.3."/></g><g class="highcharts-markers highcharts-series-0 highcharts-solidgauge-series" data-z-index="0.1" opacity="1" transform="translate(10,47) scale(1 1)" clip-path="none" aria-hidden="true"/></g><text x="55" text-anchor="middle" class="highcharts-title" data-z-index="4" style="color: rgb(51, 51, 51); font-size: 18px; fill: rgb(51, 51, 51);" y="24" aria-hidden="true">Progress</text><text x="55" text-anchor="middle" class="highcharts-subtitle" data-z-index="4" style="color: rgb(102, 102, 102); fill: rgb(102, 102, 102);" y="46" aria-hidden="true"/><text x="10" text-anchor="start" class="highcharts-caption" data-z-index="4" style="color: rgb(102, 102, 102); fill: rgb(102, 102, 102);" y="147" aria-hidden="true"/><g class="highcharts-legend highcharts-no-tooltip" data-z-index="7" visibility="hidden" aria-hidden="true"><rect fill="none" class="highcharts-legend-box" rx="0" ry="0" x="0" y="0" width="8" height="8"/><g data-z-index="1"><g/></g></g><g class="highcharts-axis-labels highcharts-yaxis-labels highcharts-radial-axis-labels" data-z-index="7" aria-hidden="true"/></svg>